<svg xmlns="http://www.w3.org/2000/svg" viewBox="0 0 520 320" role="img" aria-labelledby="title desc">
  <title id="title">Andrew Allen logo</title>
  <desc id="desc">Andrew Allen AA monogram with Experience Energy Honesty tagline and five stars.</desc>
  <g fill="#fff">
    <polygon points="178,148 235,22 255,22 200,148"/>
    <polygon points="244,22 257,22 273,58 257,58"/>
    <polygon points="204,148 246,58 262,58 220,148"/>
    <polygon points="250,58 266,58 309,148 292,148"/>
    <polygon points="205,99 278,99 278,112 198,112"/>
    <polygon points="214,124 305,124 305,137 207,137"/>
  </g>

  <g fill="#fff">
    <text x="38" y="214" font-family="Manrope, Arial, Helvetica, sans-serif" font-size="62" font-weight="400" letter-spacing="-3">Andrew Allen</text>
    <text x="36" y="252" font-family="Manrope, Arial, Helvetica, sans-serif" font-size="27" font-weight="400">Experience</text>
    <text x="213" y="252" font-family="Manrope, Arial, Helvetica, sans-serif" font-size="27" font-weight="400">|</text>
    <text x="245" y="252" font-family="Manrope, Arial, Helvetica, sans-serif" font-size="27" font-weight="400">Energy</text>
    <text x="348" y="252" font-family="Manrope, Arial, Helvetica, sans-serif" font-size="27" font-weight="400">|</text>
    <text x="381" y="252" font-family="Manrope, Arial, Helvetica, sans-serif" font-size="27" font-weight="400">Honesty</text>
    <text x="154" y="294" font-family="Georgia, 'Times New Roman', serif" font-size="27" letter-spacing="12">★★★★★</text>
  </g>
</svg>
